# xmcd
#
# Track frame offsets:
#	150
#	13282
#	32285
#	48437
#	61722
#	81804
#	96975
#	108562
#	122975
#	136510
#	150202
#
# Disc length: 2551 seconds
# Revision: 5
# Processed by: cddbd v1.5.2PL0 Copyright (c) Steve Scherf et al.
# Submitted via: dBpowerAMP V12.0
#
DISCID=7e09f50b
DTITLE=Gary Allan - It Would Be You
DYEAR=1998
DGENRE=Country
TTITLE0=It Would Be You
TTITLE1=No Man in His Wrong Heart
TTITLE2=Don't Leave Her Lonely Too Long
TTITLE3=I'll Take Today
TTITLE4=I Ain't Runnin' Yet
TTITLE5=She Loves Me (She Don't Love You)
TTITLE6=I've Got a Quarter in My Pocket
TTITLE7=Baby I Will
TTITLE8=Red Lips, Blue Eyes, Little White Lies
TTITLE9=It Took Us All Night Long to Say Goodbye
TTITLE10=Forgotten, But Not Gone
EXTD=
EXTT0=
EXTT1=
EXTT2=
EXTT3=
EXTT4=
EXTT5=
EXTT6=
EXTT7=
EXTT8=
EXTT9=
EXTT10=
PLAYORDER=
